<svg xmlns="http://www.w3.org/2000/svg" viewBox="0 0 400 400" width="100%" height="100%">
  <defs>
    <linearGradient id="grad-innovation" x1="0%" y1="0%" x2="100%" y2="100%">
      <stop offset="0%" style="stop-color:#f59e0b;stop-opacity:1" />
      <stop offset="100%" style="stop-color:#ea580c;stop-opacity:1" />
    </linearGradient>
    <filter id="shadow" x="-10%" y="-10%" width="120%" height="120%">
      <feDropShadow dx="0" dy="8" stdDeviation="6" flood-opacity="0.15"/>
    </filter>
  </defs>
  <!-- Background Gradient -->
  <rect width="400" height="400" fill="url(#grad-innovation)" />
  
  <!-- Subtle Decorative Geometric Patterns -->
  <circle cx="350" cy="50" r="120" fill="#ffffff" opacity="0.06" />
  <rect x="-50" y="250" width="200" height="200" rx="30" transform="rotate(45 50 350)" fill="#ffffff" opacity="0.04" />
  <circle cx="200" cy="200" r="150" fill="none" stroke="#ffffff" stroke-width="1" opacity="0.1" />
  <circle cx="200" cy="200" r="100" fill="none" stroke="#ffffff" stroke-width="2" stroke-dasharray="8 6" opacity="0.15" />
  
  <!-- Centered Icon Container -->
  <g transform="translate(160, 160) scale(2.5)" filter="url(#shadow)">
    <path d="M12 2a7 7 0 00-7 7c0 2.38 1.19 4.47 3 5.74V17a1 1 0 001 1h6a1 1 0 001-1v-2.26c1.81-1.27 3-3.36 3-5.74a7 7 0 00-7-7zm0 18a2.5 2.5 0 01-2.5-2.5h5A2.5 2.5 0 0112 20z" fill="#ffffff" />
  </g>
</svg>