<svg xmlns="http://www.w3.org/2000/svg" viewBox="0 0 400 400" width="100%" height="100%">
  <defs>
    <linearGradient id="grad-interdisciplinary" x1="0%" y1="0%" x2="100%" y2="100%">
      <stop offset="0%" style="stop-color:#ec4899;stop-opacity:1" />
      <stop offset="100%" style="stop-color:#db2777;stop-opacity:1" />
    </linearGradient>
    <filter id="shadow" x="-10%" y="-10%" width="120%" height="120%">
      <feDropShadow dx="0" dy="8" stdDeviation="6" flood-opacity="0.15"/>
    </filter>
  </defs>
  <!-- Background Gradient -->
  <rect width="400" height="400" fill="url(#grad-interdisciplinary)" />
  
  <!-- Subtle Decorative Geometric Patterns -->
  <circle cx="350" cy="50" r="120" fill="#ffffff" opacity="0.06" />
  <rect x="-50" y="250" width="200" height="200" rx="30" transform="rotate(45 50 350)" fill="#ffffff" opacity="0.04" />
  <circle cx="200" cy="200" r="150" fill="none" stroke="#ffffff" stroke-width="1" opacity="0.1" />
  <circle cx="200" cy="200" r="100" fill="none" stroke="#ffffff" stroke-width="2" stroke-dasharray="8 6" opacity="0.15" />
  
  <!-- Centered Icon Container -->
  <g transform="translate(160, 160) scale(2.5)" filter="url(#shadow)">
    <path d="M12 2C6.48 2 2 6.48 2 12s4.48 10 10 10 10-4.48 10-10S17.52 2 12 2zm1 17h-2v-2h2zm2.07-7.75l-.9.92C13.45 12.9 13 13.5 13 15h-2v-.5c0-1.1.45-2.1 1.17-2.83l1.24-1.26c.37-.36.59-.86.59-1.41a2 2 0 00-2-2 2 2 0 00-2 2H7a5 5 0 0110 0c0 1.01-.41 1.93-1.07 2.59z" fill="#ffffff" />
  </g>
</svg>