<svg xmlns="http://www.w3.org/2000/svg" viewBox="0 0 400 400" width="100%" height="100%">
  <defs>
    <linearGradient id="grad-operational_optimization" x1="0%" y1="0%" x2="100%" y2="100%">
      <stop offset="0%" style="stop-color:#475569;stop-opacity:1" />
      <stop offset="100%" style="stop-color:#1e293b;stop-opacity:1" />
    </linearGradient>
    <filter id="shadow" x="-10%" y="-10%" width="120%" height="120%">
      <feDropShadow dx="0" dy="8" stdDeviation="6" flood-opacity="0.15"/>
    </filter>
  </defs>
  <!-- Background Gradient -->
  <rect width="400" height="400" fill="url(#grad-operational_optimization)" />
  
  <!-- Subtle Decorative Geometric Patterns -->
  <circle cx="350" cy="50" r="120" fill="#ffffff" opacity="0.06" />
  <rect x="-50" y="250" width="200" height="200" rx="30" transform="rotate(45 50 350)" fill="#ffffff" opacity="0.04" />
  <circle cx="200" cy="200" r="150" fill="none" stroke="#ffffff" stroke-width="1" opacity="0.1" />
  <circle cx="200" cy="200" r="100" fill="none" stroke="#ffffff" stroke-width="2" stroke-dasharray="8 6" opacity="0.15" />
  
  <!-- Centered Icon Container -->
  <g transform="translate(160, 160) scale(2.5)" filter="url(#shadow)">
    <path d="M19.43 12.98c.04-.32.07-.64.07-.98s-.03-.66-.07-.98l2.11-1.65c.19-.15.24-.42.12-.64l-2-3.46c-.12-.22-.39-.3-.61-.22l-2.49 1c-.52-.4-1.08-.73-1.69-.98l-.38-2.65C14.46 2.18 14.25 2 14 2h-4c-.25 0-.46.18-.49.42l-.38 2.65c-.61.25-1.17.59-1.69.98l-2.49-1c-.23-.09-.49 0-.61.22l-2 3.46c-.13.22-.07.49.12.64l2.11 1.65c-.04.32-.07.65-.07.98s.03.66.07.98l-2.11 1.65c-.19.15-.24.42-.12.64l2 3.46c.12.22.39.3.61.22l2.49-1c.52.4 1.08.73 1.69.98l.38 2.65c.03.24.24.42.49.42h4c.25 0 .46-.18.49-.42l.38-2.65c.61-.25 1.17-.59 1.69-.98l2.49 1c.23.09.49 0 .61-.22l2-3.46c.12-.22.07-.49-.12-.64l-2.11-1.65zM12 15.5c-1.93 0-3.5-1.57-3.5-3.5s1.57-3.5 3.5-3.5 3.5 1.57 3.5 3.5-1.57 3.5-3.5 3.5z" fill="#ffffff" />
  </g>
</svg>